<mxfile host="app.diagrams.net" modified="2024-05-09T17:46:57.393Z" agent="Mozilla/5.0 (Macintosh; Intel Mac OS X 10_15_7) AppleWebKit/537.36 (KHTML, like Gecko) Chrome/124.0.0.0 Safari/537.36" etag="E_xbDNFb5_PNd9AL72Vl" version="24.3.0" type="device">
  <diagram name="Страница — 1" id="LDTjIJ6XiQ-sZmpKZAWu">
    <mxGraphModel dx="1493" dy="988" grid="1" gridSize="10" guides="1" tooltips="1" connect="1" arrows="1" fold="1" page="1" pageScale="1" pageWidth="827" pageHeight="1169" math="0" shadow="0">
      <root>
        <mxCell id="0" />
        <mxCell id="1" parent="0" />
        <mxCell id="_nhlRNhVnKmNi_UKDfx_-1" value="Employee" style="swimlane;fontStyle=1;align=center;verticalAlign=top;childLayout=stackLayout;horizontal=1;startSize=26;horizontalStack=0;resizeParent=1;resizeParentMax=0;resizeLast=0;collapsible=1;marginBottom=0;whiteSpace=wrap;html=1;" vertex="1" parent="1">
          <mxGeometry x="285" y="200" width="160" height="130" as="geometry" />
        </mxCell>
        <mxCell id="_nhlRNhVnKmNi_UKDfx_-2" value="name: CharField" style="text;strokeColor=none;fillColor=none;align=left;verticalAlign=top;spacingLeft=4;spacingRight=4;overflow=hidden;rotatable=0;points=[[0,0.5],[1,0.5]];portConstraint=eastwest;whiteSpace=wrap;html=1;" vertex="1" parent="_nhlRNhVnKmNi_UKDfx_-1">
          <mxGeometry y="26" width="160" height="26" as="geometry" />
        </mxCell>
        <mxCell id="_nhlRNhVnKmNi_UKDfx_-27" value="email: EmailField" style="text;strokeColor=none;fillColor=none;align=left;verticalAlign=top;spacingLeft=4;spacingRight=4;overflow=hidden;rotatable=0;points=[[0,0.5],[1,0.5]];portConstraint=eastwest;whiteSpace=wrap;html=1;" vertex="1" parent="_nhlRNhVnKmNi_UKDfx_-1">
          <mxGeometry y="52" width="160" height="26" as="geometry" />
        </mxCell>
        <mxCell id="_nhlRNhVnKmNi_UKDfx_-29" value="phone_number: CharField" style="text;strokeColor=none;fillColor=none;align=left;verticalAlign=top;spacingLeft=4;spacingRight=4;overflow=hidden;rotatable=0;points=[[0,0.5],[1,0.5]];portConstraint=eastwest;whiteSpace=wrap;html=1;" vertex="1" parent="_nhlRNhVnKmNi_UKDfx_-1">
          <mxGeometry y="78" width="160" height="26" as="geometry" />
        </mxCell>
        <mxCell id="_nhlRNhVnKmNi_UKDfx_-28" value="age: PositiveIntegerField" style="text;strokeColor=none;fillColor=none;align=left;verticalAlign=top;spacingLeft=4;spacingRight=4;overflow=hidden;rotatable=0;points=[[0,0.5],[1,0.5]];portConstraint=eastwest;whiteSpace=wrap;html=1;" vertex="1" parent="_nhlRNhVnKmNi_UKDfx_-1">
          <mxGeometry y="104" width="160" height="26" as="geometry" />
        </mxCell>
        <mxCell id="_nhlRNhVnKmNi_UKDfx_-3" value="Manufacturer" style="swimlane;fontStyle=1;align=center;verticalAlign=top;childLayout=stackLayout;horizontal=1;startSize=26;horizontalStack=0;resizeParent=1;resizeParentMax=0;resizeLast=0;collapsible=1;marginBottom=0;whiteSpace=wrap;html=1;" vertex="1" parent="1">
          <mxGeometry x="265" y="590" width="160" height="78" as="geometry" />
        </mxCell>
        <mxCell id="_nhlRNhVnKmNi_UKDfx_-4" value="name: CharField" style="text;strokeColor=none;fillColor=none;align=left;verticalAlign=top;spacingLeft=4;spacingRight=4;overflow=hidden;rotatable=0;points=[[0,0.5],[1,0.5]];portConstraint=eastwest;whiteSpace=wrap;html=1;" vertex="1" parent="_nhlRNhVnKmNi_UKDfx_-3">
          <mxGeometry y="26" width="160" height="26" as="geometry" />
        </mxCell>
        <mxCell id="_nhlRNhVnKmNi_UKDfx_-5" value="location: CharField" style="text;strokeColor=none;fillColor=none;align=left;verticalAlign=top;spacingLeft=4;spacingRight=4;overflow=hidden;rotatable=0;points=[[0,0.5],[1,0.5]];portConstraint=eastwest;whiteSpace=wrap;html=1;" vertex="1" parent="_nhlRNhVnKmNi_UKDfx_-3">
          <mxGeometry y="52" width="160" height="26" as="geometry" />
        </mxCell>
        <mxCell id="_nhlRNhVnKmNi_UKDfx_-6" value="TypeOfProduct" style="swimlane;fontStyle=1;align=center;verticalAlign=top;childLayout=stackLayout;horizontal=1;startSize=26;horizontalStack=0;resizeParent=1;resizeParentMax=0;resizeLast=0;collapsible=1;marginBottom=0;whiteSpace=wrap;html=1;" vertex="1" parent="1">
          <mxGeometry x="265" y="365" width="160" height="52" as="geometry" />
        </mxCell>
        <mxCell id="_nhlRNhVnKmNi_UKDfx_-7" value="name: CharField" style="text;strokeColor=none;fillColor=none;align=left;verticalAlign=top;spacingLeft=4;spacingRight=4;overflow=hidden;rotatable=0;points=[[0,0.5],[1,0.5]];portConstraint=eastwest;whiteSpace=wrap;html=1;" vertex="1" parent="_nhlRNhVnKmNi_UKDfx_-6">
          <mxGeometry y="26" width="160" height="26" as="geometry" />
        </mxCell>
        <mxCell id="_nhlRNhVnKmNi_UKDfx_-8" value="Product" style="swimlane;fontStyle=1;align=center;verticalAlign=top;childLayout=stackLayout;horizontal=1;startSize=26;horizontalStack=0;resizeParent=1;resizeParentMax=0;resizeLast=0;collapsible=1;marginBottom=0;whiteSpace=wrap;html=1;" vertex="1" parent="1">
          <mxGeometry x="515" y="365" width="170" height="210" as="geometry" />
        </mxCell>
        <mxCell id="_nhlRNhVnKmNi_UKDfx_-9" value="name: CharField" style="text;strokeColor=none;fillColor=none;align=left;verticalAlign=top;spacingLeft=4;spacingRight=4;overflow=hidden;rotatable=0;points=[[0,0.5],[1,0.5]];portConstraint=eastwest;whiteSpace=wrap;html=1;" vertex="1" parent="_nhlRNhVnKmNi_UKDfx_-8">
          <mxGeometry y="26" width="170" height="26" as="geometry" />
        </mxCell>
        <mxCell id="_nhlRNhVnKmNi_UKDfx_-10" value="type_of_product: ForeignKey" style="text;strokeColor=none;fillColor=none;align=left;verticalAlign=top;spacingLeft=4;spacingRight=4;overflow=hidden;rotatable=0;points=[[0,0.5],[1,0.5]];portConstraint=eastwest;whiteSpace=wrap;html=1;" vertex="1" parent="_nhlRNhVnKmNi_UKDfx_-8">
          <mxGeometry y="52" width="170" height="28" as="geometry" />
        </mxCell>
        <mxCell id="_nhlRNhVnKmNi_UKDfx_-11" value="manufacturer: ForeignKey" style="text;strokeColor=none;fillColor=none;align=left;verticalAlign=top;spacingLeft=4;spacingRight=4;overflow=hidden;rotatable=0;points=[[0,0.5],[1,0.5]];portConstraint=eastwest;whiteSpace=wrap;html=1;" vertex="1" parent="_nhlRNhVnKmNi_UKDfx_-8">
          <mxGeometry y="80" width="170" height="26" as="geometry" />
        </mxCell>
        <mxCell id="_nhlRNhVnKmNi_UKDfx_-12" value="price: DecimalField" style="text;strokeColor=none;fillColor=none;align=left;verticalAlign=top;spacingLeft=4;spacingRight=4;overflow=hidden;rotatable=0;points=[[0,0.5],[1,0.5]];portConstraint=eastwest;whiteSpace=wrap;html=1;" vertex="1" parent="_nhlRNhVnKmNi_UKDfx_-8">
          <mxGeometry y="106" width="170" height="26" as="geometry" />
        </mxCell>
        <mxCell id="_nhlRNhVnKmNi_UKDfx_-33" value="quantity: PositiveIntegerField" style="text;strokeColor=none;fillColor=none;align=left;verticalAlign=top;spacingLeft=4;spacingRight=4;overflow=hidden;rotatable=0;points=[[0,0.5],[1,0.5]];portConstraint=eastwest;whiteSpace=wrap;html=1;" vertex="1" parent="_nhlRNhVnKmNi_UKDfx_-8">
          <mxGeometry y="132" width="170" height="26" as="geometry" />
        </mxCell>
        <mxCell id="_nhlRNhVnKmNi_UKDfx_-32" value="created_at: DateTimeField" style="text;strokeColor=none;fillColor=none;align=left;verticalAlign=top;spacingLeft=4;spacingRight=4;overflow=hidden;rotatable=0;points=[[0,0.5],[1,0.5]];portConstraint=eastwest;whiteSpace=wrap;html=1;" vertex="1" parent="_nhlRNhVnKmNi_UKDfx_-8">
          <mxGeometry y="158" width="170" height="26" as="geometry" />
        </mxCell>
        <mxCell id="_nhlRNhVnKmNi_UKDfx_-31" value="updated_at: DateTimeField" style="text;strokeColor=none;fillColor=none;align=left;verticalAlign=top;spacingLeft=4;spacingRight=4;overflow=hidden;rotatable=0;points=[[0,0.5],[1,0.5]];portConstraint=eastwest;whiteSpace=wrap;html=1;" vertex="1" parent="_nhlRNhVnKmNi_UKDfx_-8">
          <mxGeometry y="184" width="170" height="26" as="geometry" />
        </mxCell>
        <mxCell id="_nhlRNhVnKmNi_UKDfx_-16" value="Order" style="swimlane;fontStyle=1;align=center;verticalAlign=top;childLayout=stackLayout;horizontal=1;startSize=26;horizontalStack=0;resizeParent=1;resizeParentMax=0;resizeLast=0;collapsible=1;marginBottom=0;whiteSpace=wrap;html=1;" vertex="1" parent="1">
          <mxGeometry x="795" y="442" width="180" height="184" as="geometry" />
        </mxCell>
        <mxCell id="_nhlRNhVnKmNi_UKDfx_-17" value="employee: OneToOneField" style="text;strokeColor=none;fillColor=none;align=left;verticalAlign=top;spacingLeft=4;spacingRight=4;overflow=hidden;rotatable=0;points=[[0,0.5],[1,0.5]];portConstraint=eastwest;whiteSpace=wrap;html=1;" vertex="1" parent="_nhlRNhVnKmNi_UKDfx_-16">
          <mxGeometry y="26" width="180" height="26" as="geometry" />
        </mxCell>
        <mxCell id="_nhlRNhVnKmNi_UKDfx_-18" value="products: ManyToManyField" style="text;strokeColor=none;fillColor=none;align=left;verticalAlign=top;spacingLeft=4;spacingRight=4;overflow=hidden;rotatable=0;points=[[0,0.5],[1,0.5]];portConstraint=eastwest;whiteSpace=wrap;html=1;" vertex="1" parent="_nhlRNhVnKmNi_UKDfx_-16">
          <mxGeometry y="52" width="180" height="28" as="geometry" />
        </mxCell>
        <mxCell id="_nhlRNhVnKmNi_UKDfx_-19" value="client: ForeignKey" style="text;strokeColor=none;fillColor=none;align=left;verticalAlign=top;spacingLeft=4;spacingRight=4;overflow=hidden;rotatable=0;points=[[0,0.5],[1,0.5]];portConstraint=eastwest;whiteSpace=wrap;html=1;" vertex="1" parent="_nhlRNhVnKmNi_UKDfx_-16">
          <mxGeometry y="80" width="180" height="26" as="geometry" />
        </mxCell>
        <mxCell id="_nhlRNhVnKmNi_UKDfx_-20" value="date_ordered: DateField" style="text;strokeColor=none;fillColor=none;align=left;verticalAlign=top;spacingLeft=4;spacingRight=4;overflow=hidden;rotatable=0;points=[[0,0.5],[1,0.5]];portConstraint=eastwest;whiteSpace=wrap;html=1;" vertex="1" parent="_nhlRNhVnKmNi_UKDfx_-16">
          <mxGeometry y="106" width="180" height="26" as="geometry" />
        </mxCell>
        <mxCell id="_nhlRNhVnKmNi_UKDfx_-40" value="total_price: DecimalField" style="text;strokeColor=none;fillColor=none;align=left;verticalAlign=top;spacingLeft=4;spacingRight=4;overflow=hidden;rotatable=0;points=[[0,0.5],[1,0.5]];portConstraint=eastwest;whiteSpace=wrap;html=1;" vertex="1" parent="_nhlRNhVnKmNi_UKDfx_-16">
          <mxGeometry y="132" width="180" height="26" as="geometry" />
        </mxCell>
        <mxCell id="_nhlRNhVnKmNi_UKDfx_-21" value="product_quantities: JSONField" style="text;strokeColor=none;fillColor=none;align=left;verticalAlign=top;spacingLeft=4;spacingRight=4;overflow=hidden;rotatable=0;points=[[0,0.5],[1,0.5]];portConstraint=eastwest;whiteSpace=wrap;html=1;" vertex="1" parent="_nhlRNhVnKmNi_UKDfx_-16">
          <mxGeometry y="158" width="180" height="26" as="geometry" />
        </mxCell>
        <mxCell id="_nhlRNhVnKmNi_UKDfx_-34" value="Client" style="swimlane;fontStyle=1;align=center;verticalAlign=top;childLayout=stackLayout;horizontal=1;startSize=26;horizontalStack=0;resizeParent=1;resizeParentMax=0;resizeLast=0;collapsible=1;marginBottom=0;whiteSpace=wrap;html=1;" vertex="1" parent="1">
          <mxGeometry x="495" y="640" width="160" height="130" as="geometry" />
        </mxCell>
        <mxCell id="_nhlRNhVnKmNi_UKDfx_-35" value="name: CharField" style="text;strokeColor=none;fillColor=none;align=left;verticalAlign=top;spacingLeft=4;spacingRight=4;overflow=hidden;rotatable=0;points=[[0,0.5],[1,0.5]];portConstraint=eastwest;whiteSpace=wrap;html=1;" vertex="1" parent="_nhlRNhVnKmNi_UKDfx_-34">
          <mxGeometry y="26" width="160" height="26" as="geometry" />
        </mxCell>
        <mxCell id="_nhlRNhVnKmNi_UKDfx_-36" value="email: EmailField" style="text;strokeColor=none;fillColor=none;align=left;verticalAlign=top;spacingLeft=4;spacingRight=4;overflow=hidden;rotatable=0;points=[[0,0.5],[1,0.5]];portConstraint=eastwest;whiteSpace=wrap;html=1;" vertex="1" parent="_nhlRNhVnKmNi_UKDfx_-34">
          <mxGeometry y="52" width="160" height="26" as="geometry" />
        </mxCell>
        <mxCell id="_nhlRNhVnKmNi_UKDfx_-37" value="phone_number: CharField" style="text;strokeColor=none;fillColor=none;align=left;verticalAlign=top;spacingLeft=4;spacingRight=4;overflow=hidden;rotatable=0;points=[[0,0.5],[1,0.5]];portConstraint=eastwest;whiteSpace=wrap;html=1;" vertex="1" parent="_nhlRNhVnKmNi_UKDfx_-34">
          <mxGeometry y="78" width="160" height="26" as="geometry" />
        </mxCell>
        <mxCell id="_nhlRNhVnKmNi_UKDfx_-38" value="age: PositiveIntegerField" style="text;strokeColor=none;fillColor=none;align=left;verticalAlign=top;spacingLeft=4;spacingRight=4;overflow=hidden;rotatable=0;points=[[0,0.5],[1,0.5]];portConstraint=eastwest;whiteSpace=wrap;html=1;" vertex="1" parent="_nhlRNhVnKmNi_UKDfx_-34">
          <mxGeometry y="104" width="160" height="26" as="geometry" />
        </mxCell>
        <mxCell id="_nhlRNhVnKmNi_UKDfx_-39" style="edgeStyle=orthogonalEdgeStyle;rounded=0;orthogonalLoop=1;jettySize=auto;html=1;entryX=0.5;entryY=0;entryDx=0;entryDy=0;" edge="1" parent="1" source="_nhlRNhVnKmNi_UKDfx_-19" target="_nhlRNhVnKmNi_UKDfx_-34">
          <mxGeometry relative="1" as="geometry">
            <Array as="points">
              <mxPoint x="775" y="535" />
              <mxPoint x="775" y="600" />
              <mxPoint x="575" y="600" />
            </Array>
          </mxGeometry>
        </mxCell>
        <mxCell id="_nhlRNhVnKmNi_UKDfx_-41" value="User" style="swimlane;fontStyle=1;align=center;verticalAlign=top;childLayout=stackLayout;horizontal=1;startSize=26;horizontalStack=0;resizeParent=1;resizeParentMax=0;resizeLast=0;collapsible=1;marginBottom=0;whiteSpace=wrap;html=1;" vertex="1" parent="1">
          <mxGeometry x="805" y="160" width="160" height="78" as="geometry" />
        </mxCell>
        <mxCell id="_nhlRNhVnKmNi_UKDfx_-42" value="is_client: BooleanField" style="text;strokeColor=none;fillColor=none;align=left;verticalAlign=top;spacingLeft=4;spacingRight=4;overflow=hidden;rotatable=0;points=[[0,0.5],[1,0.5]];portConstraint=eastwest;whiteSpace=wrap;html=1;" vertex="1" parent="_nhlRNhVnKmNi_UKDfx_-41">
          <mxGeometry y="26" width="160" height="26" as="geometry" />
        </mxCell>
        <mxCell id="_nhlRNhVnKmNi_UKDfx_-43" value="is_employee: BooleanField" style="text;strokeColor=none;fillColor=none;align=left;verticalAlign=top;spacingLeft=4;spacingRight=4;overflow=hidden;rotatable=0;points=[[0,0.5],[1,0.5]];portConstraint=eastwest;whiteSpace=wrap;html=1;" vertex="1" parent="_nhlRNhVnKmNi_UKDfx_-41">
          <mxGeometry y="52" width="160" height="26" as="geometry" />
        </mxCell>
        <mxCell id="_nhlRNhVnKmNi_UKDfx_-46" value="Article" style="swimlane;fontStyle=1;align=center;verticalAlign=top;childLayout=stackLayout;horizontal=1;startSize=26;horizontalStack=0;resizeParent=1;resizeParentMax=0;resizeLast=0;collapsible=1;marginBottom=0;whiteSpace=wrap;html=1;" vertex="1" parent="1">
          <mxGeometry x="50" y="365" width="190" height="130" as="geometry" />
        </mxCell>
        <mxCell id="_nhlRNhVnKmNi_UKDfx_-47" value="title: CharField" style="text;strokeColor=none;fillColor=none;align=left;verticalAlign=top;spacingLeft=4;spacingRight=4;overflow=hidden;rotatable=0;points=[[0,0.5],[1,0.5]];portConstraint=eastwest;whiteSpace=wrap;html=1;" vertex="1" parent="_nhlRNhVnKmNi_UKDfx_-46">
          <mxGeometry y="26" width="190" height="26" as="geometry" />
        </mxCell>
        <mxCell id="_nhlRNhVnKmNi_UKDfx_-48" value="content: TextField" style="text;strokeColor=none;fillColor=none;align=left;verticalAlign=top;spacingLeft=4;spacingRight=4;overflow=hidden;rotatable=0;points=[[0,0.5],[1,0.5]];portConstraint=eastwest;whiteSpace=wrap;html=1;" vertex="1" parent="_nhlRNhVnKmNi_UKDfx_-46">
          <mxGeometry y="52" width="190" height="26" as="geometry" />
        </mxCell>
        <mxCell id="_nhlRNhVnKmNi_UKDfx_-49" value="image: ImageField" style="text;strokeColor=none;fillColor=none;align=left;verticalAlign=top;spacingLeft=4;spacingRight=4;overflow=hidden;rotatable=0;points=[[0,0.5],[1,0.5]];portConstraint=eastwest;whiteSpace=wrap;html=1;" vertex="1" parent="_nhlRNhVnKmNi_UKDfx_-46">
          <mxGeometry y="78" width="190" height="26" as="geometry" />
        </mxCell>
        <mxCell id="_nhlRNhVnKmNi_UKDfx_-50" value="published_date:&amp;nbsp;DateTimeField" style="text;strokeColor=none;fillColor=none;align=left;verticalAlign=top;spacingLeft=4;spacingRight=4;overflow=hidden;rotatable=0;points=[[0,0.5],[1,0.5]];portConstraint=eastwest;whiteSpace=wrap;html=1;" vertex="1" parent="_nhlRNhVnKmNi_UKDfx_-46">
          <mxGeometry y="104" width="190" height="26" as="geometry" />
        </mxCell>
        <mxCell id="_nhlRNhVnKmNi_UKDfx_-51" value="CompanyInfo" style="swimlane;fontStyle=1;align=center;verticalAlign=top;childLayout=stackLayout;horizontal=1;startSize=26;horizontalStack=0;resizeParent=1;resizeParentMax=0;resizeLast=0;collapsible=1;marginBottom=0;whiteSpace=wrap;html=1;" vertex="1" parent="1">
          <mxGeometry x="55" y="523" width="180" height="52" as="geometry" />
        </mxCell>
        <mxCell id="_nhlRNhVnKmNi_UKDfx_-53" value="text: TextField" style="text;strokeColor=none;fillColor=none;align=left;verticalAlign=top;spacingLeft=4;spacingRight=4;overflow=hidden;rotatable=0;points=[[0,0.5],[1,0.5]];portConstraint=eastwest;whiteSpace=wrap;html=1;" vertex="1" parent="_nhlRNhVnKmNi_UKDfx_-51">
          <mxGeometry y="26" width="180" height="26" as="geometry" />
        </mxCell>
        <mxCell id="_nhlRNhVnKmNi_UKDfx_-56" value="Term" style="swimlane;fontStyle=1;align=center;verticalAlign=top;childLayout=stackLayout;horizontal=1;startSize=26;horizontalStack=0;resizeParent=1;resizeParentMax=0;resizeLast=0;collapsible=1;marginBottom=0;whiteSpace=wrap;html=1;" vertex="1" parent="1">
          <mxGeometry x="60" y="630" width="170" height="104" as="geometry" />
        </mxCell>
        <mxCell id="_nhlRNhVnKmNi_UKDfx_-57" value="question: CharField" style="text;strokeColor=none;fillColor=none;align=left;verticalAlign=top;spacingLeft=4;spacingRight=4;overflow=hidden;rotatable=0;points=[[0,0.5],[1,0.5]];portConstraint=eastwest;whiteSpace=wrap;html=1;" vertex="1" parent="_nhlRNhVnKmNi_UKDfx_-56">
          <mxGeometry y="26" width="170" height="26" as="geometry" />
        </mxCell>
        <mxCell id="_nhlRNhVnKmNi_UKDfx_-58" value="answer: TextField" style="text;strokeColor=none;fillColor=none;align=left;verticalAlign=top;spacingLeft=4;spacingRight=4;overflow=hidden;rotatable=0;points=[[0,0.5],[1,0.5]];portConstraint=eastwest;whiteSpace=wrap;html=1;" vertex="1" parent="_nhlRNhVnKmNi_UKDfx_-56">
          <mxGeometry y="52" width="170" height="26" as="geometry" />
        </mxCell>
        <mxCell id="_nhlRNhVnKmNi_UKDfx_-60" value="date_added:&amp;nbsp;DateField" style="text;strokeColor=none;fillColor=none;align=left;verticalAlign=top;spacingLeft=4;spacingRight=4;overflow=hidden;rotatable=0;points=[[0,0.5],[1,0.5]];portConstraint=eastwest;whiteSpace=wrap;html=1;" vertex="1" parent="_nhlRNhVnKmNi_UKDfx_-56">
          <mxGeometry y="78" width="170" height="26" as="geometry" />
        </mxCell>
        <mxCell id="_nhlRNhVnKmNi_UKDfx_-61" value="Contact" style="swimlane;fontStyle=1;align=center;verticalAlign=top;childLayout=stackLayout;horizontal=1;startSize=26;horizontalStack=0;resizeParent=1;resizeParentMax=0;resizeLast=0;collapsible=1;marginBottom=0;whiteSpace=wrap;html=1;" vertex="1" parent="1">
          <mxGeometry x="65" y="210" width="160" height="104" as="geometry" />
        </mxCell>
        <mxCell id="_nhlRNhVnKmNi_UKDfx_-62" value="employee: OneToOneField" style="text;strokeColor=none;fillColor=none;align=left;verticalAlign=top;spacingLeft=4;spacingRight=4;overflow=hidden;rotatable=0;points=[[0,0.5],[1,0.5]];portConstraint=eastwest;whiteSpace=wrap;html=1;" vertex="1" parent="_nhlRNhVnKmNi_UKDfx_-61">
          <mxGeometry y="26" width="160" height="26" as="geometry" />
        </mxCell>
        <mxCell id="_nhlRNhVnKmNi_UKDfx_-63" value="description: TextField" style="text;strokeColor=none;fillColor=none;align=left;verticalAlign=top;spacingLeft=4;spacingRight=4;overflow=hidden;rotatable=0;points=[[0,0.5],[1,0.5]];portConstraint=eastwest;whiteSpace=wrap;html=1;" vertex="1" parent="_nhlRNhVnKmNi_UKDfx_-61">
          <mxGeometry y="52" width="160" height="26" as="geometry" />
        </mxCell>
        <mxCell id="_nhlRNhVnKmNi_UKDfx_-64" value="photo: ImageField" style="text;strokeColor=none;fillColor=none;align=left;verticalAlign=top;spacingLeft=4;spacingRight=4;overflow=hidden;rotatable=0;points=[[0,0.5],[1,0.5]];portConstraint=eastwest;whiteSpace=wrap;html=1;" vertex="1" parent="_nhlRNhVnKmNi_UKDfx_-61">
          <mxGeometry y="78" width="160" height="26" as="geometry" />
        </mxCell>
        <mxCell id="_nhlRNhVnKmNi_UKDfx_-65" style="edgeStyle=orthogonalEdgeStyle;rounded=0;orthogonalLoop=1;jettySize=auto;html=1;entryX=0.5;entryY=0;entryDx=0;entryDy=0;" edge="1" parent="1" source="_nhlRNhVnKmNi_UKDfx_-62" target="_nhlRNhVnKmNi_UKDfx_-1">
          <mxGeometry relative="1" as="geometry">
            <Array as="points">
              <mxPoint x="235" y="249" />
              <mxPoint x="235" y="180" />
              <mxPoint x="365" y="180" />
            </Array>
          </mxGeometry>
        </mxCell>
        <mxCell id="_nhlRNhVnKmNi_UKDfx_-66" value="Vacancy" style="swimlane;fontStyle=1;align=center;verticalAlign=top;childLayout=stackLayout;horizontal=1;startSize=26;horizontalStack=0;resizeParent=1;resizeParentMax=0;resizeLast=0;collapsible=1;marginBottom=0;whiteSpace=wrap;html=1;" vertex="1" parent="1">
          <mxGeometry x="265" y="450" width="160" height="78" as="geometry" />
        </mxCell>
        <mxCell id="_nhlRNhVnKmNi_UKDfx_-67" value="title: CharField" style="text;strokeColor=none;fillColor=none;align=left;verticalAlign=top;spacingLeft=4;spacingRight=4;overflow=hidden;rotatable=0;points=[[0,0.5],[1,0.5]];portConstraint=eastwest;whiteSpace=wrap;html=1;" vertex="1" parent="_nhlRNhVnKmNi_UKDfx_-66">
          <mxGeometry y="26" width="160" height="26" as="geometry" />
        </mxCell>
        <mxCell id="_nhlRNhVnKmNi_UKDfx_-68" value="description: TextField" style="text;strokeColor=none;fillColor=none;align=left;verticalAlign=top;spacingLeft=4;spacingRight=4;overflow=hidden;rotatable=0;points=[[0,0.5],[1,0.5]];portConstraint=eastwest;whiteSpace=wrap;html=1;" vertex="1" parent="_nhlRNhVnKmNi_UKDfx_-66">
          <mxGeometry y="52" width="160" height="26" as="geometry" />
        </mxCell>
        <mxCell id="_nhlRNhVnKmNi_UKDfx_-70" value="Review" style="swimlane;fontStyle=1;align=center;verticalAlign=top;childLayout=stackLayout;horizontal=1;startSize=26;horizontalStack=0;resizeParent=1;resizeParentMax=0;resizeLast=0;collapsible=1;marginBottom=0;whiteSpace=wrap;html=1;" vertex="1" parent="1">
          <mxGeometry x="805" y="262" width="160" height="155" as="geometry" />
        </mxCell>
        <mxCell id="_nhlRNhVnKmNi_UKDfx_-71" value="user: ForeignKey" style="text;strokeColor=none;fillColor=none;align=left;verticalAlign=top;spacingLeft=4;spacingRight=4;overflow=hidden;rotatable=0;points=[[0,0.5],[1,0.5]];portConstraint=eastwest;whiteSpace=wrap;html=1;" vertex="1" parent="_nhlRNhVnKmNi_UKDfx_-70">
          <mxGeometry y="26" width="160" height="26" as="geometry" />
        </mxCell>
        <mxCell id="_nhlRNhVnKmNi_UKDfx_-72" value="rating: IntegerField" style="text;strokeColor=none;fillColor=none;align=left;verticalAlign=top;spacingLeft=4;spacingRight=4;overflow=hidden;rotatable=0;points=[[0,0.5],[1,0.5]];portConstraint=eastwest;whiteSpace=wrap;html=1;" vertex="1" parent="_nhlRNhVnKmNi_UKDfx_-70">
          <mxGeometry y="52" width="160" height="26" as="geometry" />
        </mxCell>
        <mxCell id="_nhlRNhVnKmNi_UKDfx_-73" value="text: TextField" style="text;strokeColor=none;fillColor=none;align=left;verticalAlign=top;spacingLeft=4;spacingRight=4;overflow=hidden;rotatable=0;points=[[0,0.5],[1,0.5]];portConstraint=eastwest;whiteSpace=wrap;html=1;" vertex="1" parent="_nhlRNhVnKmNi_UKDfx_-70">
          <mxGeometry y="78" width="160" height="26" as="geometry" />
        </mxCell>
        <mxCell id="_nhlRNhVnKmNi_UKDfx_-76" value="date_added: DateTimeField" style="text;strokeColor=none;fillColor=none;align=left;verticalAlign=top;spacingLeft=4;spacingRight=4;overflow=hidden;rotatable=0;points=[[0,0.5],[1,0.5]];portConstraint=eastwest;whiteSpace=wrap;html=1;" vertex="1" parent="_nhlRNhVnKmNi_UKDfx_-70">
          <mxGeometry y="104" width="160" height="26" as="geometry" />
        </mxCell>
        <mxCell id="_nhlRNhVnKmNi_UKDfx_-75" value="product: ForeignKey" style="text;strokeColor=none;fillColor=none;align=left;verticalAlign=top;spacingLeft=4;spacingRight=4;overflow=hidden;rotatable=0;points=[[0,0.5],[1,0.5]];portConstraint=eastwest;whiteSpace=wrap;html=1;" vertex="1" parent="_nhlRNhVnKmNi_UKDfx_-70">
          <mxGeometry y="130" width="160" height="25" as="geometry" />
        </mxCell>
        <mxCell id="_nhlRNhVnKmNi_UKDfx_-78" value="PromoCode" style="swimlane;fontStyle=1;align=center;verticalAlign=top;childLayout=stackLayout;horizontal=1;startSize=26;horizontalStack=0;resizeParent=1;resizeParentMax=0;resizeLast=0;collapsible=1;marginBottom=0;whiteSpace=wrap;html=1;" vertex="1" parent="1">
          <mxGeometry x="705" y="640" width="160" height="104" as="geometry" />
        </mxCell>
        <mxCell id="_nhlRNhVnKmNi_UKDfx_-79" value="code: CharField" style="text;strokeColor=none;fillColor=none;align=left;verticalAlign=top;spacingLeft=4;spacingRight=4;overflow=hidden;rotatable=0;points=[[0,0.5],[1,0.5]];portConstraint=eastwest;whiteSpace=wrap;html=1;" vertex="1" parent="_nhlRNhVnKmNi_UKDfx_-78">
          <mxGeometry y="26" width="160" height="26" as="geometry" />
        </mxCell>
        <mxCell id="_nhlRNhVnKmNi_UKDfx_-80" value="percentage: DecimalField" style="text;strokeColor=none;fillColor=none;align=left;verticalAlign=top;spacingLeft=4;spacingRight=4;overflow=hidden;rotatable=0;points=[[0,0.5],[1,0.5]];portConstraint=eastwest;whiteSpace=wrap;html=1;" vertex="1" parent="_nhlRNhVnKmNi_UKDfx_-78">
          <mxGeometry y="52" width="160" height="26" as="geometry" />
        </mxCell>
        <mxCell id="_nhlRNhVnKmNi_UKDfx_-81" value="is_active: BooleanField" style="text;strokeColor=none;fillColor=none;align=left;verticalAlign=top;spacingLeft=4;spacingRight=4;overflow=hidden;rotatable=0;points=[[0,0.5],[1,0.5]];portConstraint=eastwest;whiteSpace=wrap;html=1;" vertex="1" parent="_nhlRNhVnKmNi_UKDfx_-78">
          <mxGeometry y="78" width="160" height="26" as="geometry" />
        </mxCell>
        <mxCell id="_nhlRNhVnKmNi_UKDfx_-84" value="PickUpPoint" style="swimlane;fontStyle=1;align=center;verticalAlign=top;childLayout=stackLayout;horizontal=1;startSize=26;horizontalStack=0;resizeParent=1;resizeParentMax=0;resizeLast=0;collapsible=1;marginBottom=0;whiteSpace=wrap;html=1;" vertex="1" parent="1">
          <mxGeometry x="265" y="700" width="160" height="52" as="geometry" />
        </mxCell>
        <mxCell id="_nhlRNhVnKmNi_UKDfx_-85" value="address: CharField" style="text;strokeColor=none;fillColor=none;align=left;verticalAlign=top;spacingLeft=4;spacingRight=4;overflow=hidden;rotatable=0;points=[[0,0.5],[1,0.5]];portConstraint=eastwest;whiteSpace=wrap;html=1;" vertex="1" parent="_nhlRNhVnKmNi_UKDfx_-84">
          <mxGeometry y="26" width="160" height="26" as="geometry" />
        </mxCell>
        <mxCell id="_nhlRNhVnKmNi_UKDfx_-89" style="edgeStyle=orthogonalEdgeStyle;rounded=0;orthogonalLoop=1;jettySize=auto;html=1;entryX=0.5;entryY=0;entryDx=0;entryDy=0;" edge="1" parent="1" source="_nhlRNhVnKmNi_UKDfx_-71" target="_nhlRNhVnKmNi_UKDfx_-41">
          <mxGeometry relative="1" as="geometry">
            <Array as="points">
              <mxPoint x="785" y="301" />
              <mxPoint x="785" y="140" />
              <mxPoint x="885" y="140" />
            </Array>
          </mxGeometry>
        </mxCell>
        <mxCell id="_nhlRNhVnKmNi_UKDfx_-91" style="edgeStyle=orthogonalEdgeStyle;rounded=0;orthogonalLoop=1;jettySize=auto;html=1;entryX=0.5;entryY=0;entryDx=0;entryDy=0;" edge="1" parent="1" source="_nhlRNhVnKmNi_UKDfx_-10" target="_nhlRNhVnKmNi_UKDfx_-6">
          <mxGeometry relative="1" as="geometry">
            <Array as="points">
              <mxPoint x="465" y="431" />
              <mxPoint x="465" y="345" />
              <mxPoint x="345" y="345" />
            </Array>
          </mxGeometry>
        </mxCell>
        <mxCell id="_nhlRNhVnKmNi_UKDfx_-92" style="edgeStyle=orthogonalEdgeStyle;rounded=0;orthogonalLoop=1;jettySize=auto;html=1;entryX=0.5;entryY=0;entryDx=0;entryDy=0;" edge="1" parent="1" source="_nhlRNhVnKmNi_UKDfx_-11" target="_nhlRNhVnKmNi_UKDfx_-3">
          <mxGeometry relative="1" as="geometry">
            <Array as="points">
              <mxPoint x="465" y="458" />
              <mxPoint x="465" y="560" />
              <mxPoint x="345" y="560" />
            </Array>
          </mxGeometry>
        </mxCell>
        <mxCell id="_nhlRNhVnKmNi_UKDfx_-93" style="edgeStyle=orthogonalEdgeStyle;rounded=0;orthogonalLoop=1;jettySize=auto;html=1;entryX=0.5;entryY=0;entryDx=0;entryDy=0;" edge="1" parent="1" source="_nhlRNhVnKmNi_UKDfx_-18" target="_nhlRNhVnKmNi_UKDfx_-8">
          <mxGeometry relative="1" as="geometry">
            <Array as="points">
              <mxPoint x="705" y="508" />
              <mxPoint x="705" y="350" />
              <mxPoint x="600" y="350" />
            </Array>
          </mxGeometry>
        </mxCell>
        <mxCell id="_nhlRNhVnKmNi_UKDfx_-94" style="edgeStyle=orthogonalEdgeStyle;rounded=0;orthogonalLoop=1;jettySize=auto;html=1;entryX=0.5;entryY=0;entryDx=0;entryDy=0;" edge="1" parent="1" source="_nhlRNhVnKmNi_UKDfx_-75" target="_nhlRNhVnKmNi_UKDfx_-8">
          <mxGeometry relative="1" as="geometry">
            <Array as="points">
              <mxPoint x="725" y="405" />
              <mxPoint x="725" y="330" />
              <mxPoint x="600" y="330" />
            </Array>
          </mxGeometry>
        </mxCell>
        <mxCell id="_nhlRNhVnKmNi_UKDfx_-95" style="edgeStyle=orthogonalEdgeStyle;rounded=0;orthogonalLoop=1;jettySize=auto;html=1;entryX=0.5;entryY=0;entryDx=0;entryDy=0;" edge="1" parent="1" source="_nhlRNhVnKmNi_UKDfx_-17" target="_nhlRNhVnKmNi_UKDfx_-1">
          <mxGeometry relative="1" as="geometry">
            <Array as="points">
              <mxPoint x="745" y="481" />
              <mxPoint x="745" y="160" />
              <mxPoint x="365" y="160" />
            </Array>
          </mxGeometry>
        </mxCell>
      </root>
    </mxGraphModel>
  </diagram>
</mxfile>
